<svg width="80" height="44" viewBox="0 0 80 44" fill="none" xmlns="http://www.w3.org/2000/svg">
<path d="M31 22C33.7569 22 36 19.7569 36 17C36 14.2431 33.7569 12 31 12C28.2431 12 26 14.2431 26 17C26 19.7569 28.2431 22 31 22ZM53 14H39C38.4475 14 38 14.4475 38 15V24H24V11C24 10.4475 23.5525 10 23 10H21C20.4475 10 20 10.4475 20 11V33C20 33.5525 20.4475 34 21 34H23C23.5525 34 24 33.5525 24 33V30H56V33C56 33.5525 56.4475 34 57 34H59C59.5525 34 60 33.5525 60 33V21C60 17.1337 56.8662 14 53 14Z" fill="#6D84A6"/>
</svg>
