<svg width="73" height="45" viewBox="0 0 73 45" fill="none" xmlns="http://www.w3.org/2000/svg">
<path d="M46.6553 20.9389H34.1565C33.7268 20.9389 33.3753 21.2904 33.3753 21.72V28.7506H24.0012V17.033C24.0012 16.6034 23.6497 16.2518 23.22 16.2518H21.6577C21.2281 16.2518 20.8765 16.6034 20.8765 17.033V34.2188C20.8765 34.6485 21.2281 35 21.6577 35H23.22C23.6497 35 24.0012 34.6485 24.0012 34.2188V31.8753H48.9988V34.2188C48.9988 34.6485 49.3503 35 49.78 35H51.3423C51.7719 35 52.1235 34.6485 52.1235 34.2188V26.4071C52.1235 23.3849 49.6774 20.9389 46.6553 20.9389ZM27.5165 14.6895H33.6731L35.0207 17.3845C35.3087 17.9606 36.1289 17.9606 36.417 17.3845L38.8435 12.5315L39.9225 14.6895H45.8741C46.3037 14.6895 46.6553 14.338 46.6553 13.9083C46.6553 13.4787 46.3037 13.1271 45.8741 13.1271H40.8892L39.5417 10.4321C39.2536 9.85597 38.4334 9.85597 38.1453 10.4321L35.7188 15.2851L34.7472 13.342C34.6789 13.2101 34.5471 13.1271 34.3957 13.1271H27.5165C27.3017 13.1271 27.1259 13.3029 27.1259 13.5177V14.2989C27.1259 14.5137 27.3017 14.6895 27.5165 14.6895ZM28.6883 27.1883C30.4117 27.1883 31.813 25.787 31.813 24.0636C31.813 22.3401 30.4117 20.9389 28.6883 20.9389C26.9648 20.9389 25.5636 22.3401 25.5636 24.0636C25.5636 25.787 26.9648 27.1883 28.6883 27.1883Z" fill="black" fill-opacity="0.7"/>
</svg>
