<svg width="23" height="25" viewBox="0 0 23 25" fill="none" xmlns="http://www.w3.org/2000/svg">
<path d="M21.0154 5.46768C20.1562 5.46768 19.4532 6.17067 19.4532 7.02988V10.5448C19.4532 10.7596 19.2774 10.9354 19.0626 10.9354H18.2815C18.0667 10.9354 17.891 10.7596 17.891 10.5448V3.12439C17.891 2.26518 17.188 1.56219 16.3288 1.56219C15.4696 1.56219 14.7666 2.26518 14.7666 3.12439V10.5448C14.7666 10.7596 14.5909 10.9354 14.3761 10.9354H13.595C13.3802 10.9354 13.2044 10.7596 13.2044 10.5448V1.56219C13.2044 0.702988 12.5014 0 11.6422 0C10.783 0 10.08 0.702988 10.08 1.56219V10.5448C10.08 10.7596 9.90427 10.9354 9.68947 10.9354H8.90837C8.69357 10.9354 8.51782 10.7596 8.51782 10.5448V3.12439C8.51782 2.26518 7.81484 1.56219 6.95563 1.56219C6.09642 1.56219 5.39343 2.26518 5.39343 3.12439V14.8897L4.24131 13.3031C3.60667 12.4292 2.38621 12.2388 1.51236 12.8735C0.638502 13.5081 0.44811 14.7286 1.08275 15.6024L7.21437 24.0334C7.65373 24.6387 8.3616 25 9.10853 25H18.7551C19.8437 25 20.7859 24.2531 21.0349 23.1937L22.3286 17.6919C22.4848 17.023 22.5678 16.3103 22.5776 15.6268V7.02988C22.5776 6.17067 21.8746 5.46768 21.0154 5.46768ZM9.29892 20.3085C8.86932 20.3085 8.51782 19.957 8.51782 19.5274C8.51782 19.0978 8.86932 18.7463 9.29892 18.7463C9.72852 18.7463 10.08 19.0978 10.08 19.5274C10.08 19.957 9.72852 20.3085 9.29892 20.3085ZM9.29892 15.6219C8.86932 15.6219 8.51782 15.2705 8.51782 14.8409C8.51782 14.4112 8.86932 14.0598 9.29892 14.0598C9.72852 14.0598 10.08 14.4112 10.08 14.8409C10.08 15.2705 9.72852 15.6219 9.29892 15.6219ZM12.4233 21.8707C11.9937 21.8707 11.6422 21.5192 11.6422 21.0896C11.6422 20.66 11.9937 20.3085 12.4233 20.3085C12.8529 20.3085 13.2044 20.66 13.2044 21.0896C13.2044 21.5192 12.8529 21.8707 12.4233 21.8707ZM12.4233 17.1841C11.9937 17.1841 11.6422 16.8327 11.6422 16.403C11.6422 15.9734 11.9937 15.6219 12.4233 15.6219C12.8529 15.6219 13.2044 15.9734 13.2044 16.403C13.2044 16.8327 12.8529 17.1841 12.4233 17.1841ZM15.5477 18.7463C15.1181 18.7463 14.7666 18.3948 14.7666 17.9652C14.7666 17.5356 15.1181 17.1841 15.5477 17.1841C15.9773 17.1841 16.3288 17.5356 16.3288 17.9652C16.3288 18.3948 15.9773 18.7463 15.5477 18.7463ZM17.1099 21.8707C16.6803 21.8707 16.3288 21.5192 16.3288 21.0896C16.3288 20.66 16.6803 20.3085 17.1099 20.3085C17.5395 20.3085 17.891 20.66 17.891 21.0896C17.891 21.5192 17.5395 21.8707 17.1099 21.8707ZM18.6721 15.6219C18.2425 15.6219 17.891 15.2705 17.891 14.8409C17.891 14.4112 18.2425 14.0598 18.6721 14.0598C19.1017 14.0598 19.4532 14.4112 19.4532 14.8409C19.4532 15.2705 19.1017 15.6219 18.6721 15.6219Z" fill="black" fill-opacity="0.7"/>
</svg>
