<svg width="63" height="45" viewBox="0 0 63 45" fill="none" xmlns="http://www.w3.org/2000/svg">
<path d="M23.125 28.75C23.125 30.4759 24.5241 31.875 26.25 31.875C27.9759 31.875 29.375 30.4759 29.375 28.75C29.375 27.5935 28.7463 26.5845 27.8125 26.0441V20.9375C27.8125 20.0746 27.113 19.375 26.25 19.375C25.3871 19.375 24.6875 20.0746 24.6875 20.9375V26.0441C23.7537 26.5845 23.125 27.5935 23.125 28.75ZM21.5625 24.6166C20.5903 25.7183 20 27.1651 20 28.75C20 32.202 22.798 35 26.25 35C26.2646 35 26.2798 35 26.2944 34.9999C29.7271 34.976 32.5174 32.1502 32.4999 28.7174C32.4919 27.1453 31.9031 25.7107 30.9375 24.6166V14.6875C30.9375 12.0987 28.8388 10 26.25 10C23.6612 10 21.5625 12.0987 21.5625 14.6875V24.6166ZM22.3438 28.75C22.3438 27.0733 23.2896 26.2017 23.9063 25.5028V14.6875C23.9063 13.3952 24.9577 12.3438 26.25 12.3438C27.5423 12.3438 28.5938 13.3952 28.5938 14.6875V25.5028C29.2154 26.2073 30.1477 27.0702 30.1562 28.7294C30.1672 30.8718 28.4197 32.6413 26.2781 32.6562L26.25 32.6562C24.0961 32.6562 22.3438 30.9039 22.3438 28.75Z" fill="#6D84A6"/>
</svg>
