<svg width="23" height="23" viewBox="0 0 23 23" fill="none" xmlns="http://www.w3.org/2000/svg">
<path d="M22.5771 18.0163L17.3289 13.2446C17.0809 13.0191 16.7549 12.8988 16.4198 12.9092C16.0847 12.9196 15.7668 13.0597 15.5331 13.3001L12.4436 16.4774C11.6999 16.3354 10.2049 15.8693 8.66595 14.3342C7.12701 12.794 6.66093 11.2951 6.52279 10.5566L9.6975 7.46579C9.93817 7.23228 10.0785 6.91428 10.0889 6.5791C10.0993 6.24392 9.9788 5.91787 9.75302 5.66993L4.98256 0.42307C4.75668 0.174356 4.44274 0.0234925 4.10742 0.00251987C3.7721 -0.0184528 3.44181 0.0921175 3.1867 0.310748L0.3851 2.71341C0.16189 2.93743 0.0286635 3.23558 0.0106925 3.5513C-0.00867338 3.87407 -0.377916 11.5197 5.55062 17.4508C10.7226 22.6215 17.2011 22.9998 18.9854 22.9998C19.2462 22.9998 19.4063 22.9921 19.4489 22.9895C19.7645 22.9718 20.0625 22.838 20.2855 22.6138L22.6868 19.8109C22.9063 19.5566 23.0177 19.2266 22.9972 18.8913C22.9767 18.556 22.8259 18.242 22.5771 18.0163Z" fill="black"/>
</svg>
