<svg width="69" height="45" viewBox="0 0 69 45" fill="none" xmlns="http://www.w3.org/2000/svg">
<path d="M46.6637 10.4747C46.3903 9.86445 45.6091 9.84004 45.282 10.4161C43.7686 13.0476 41.059 14.688 37.9637 14.688H34.0579C28.8829 14.688 24.6842 18.8867 24.6842 24.0618C24.6842 24.4035 24.7233 24.7306 24.7574 25.0626C27.8722 22.8315 32.3687 20.9372 38.7448 20.9372C39.1744 20.9372 39.526 21.2887 39.526 21.7183C39.526 22.148 39.1744 22.4995 38.7448 22.4995C26.4711 22.4995 21.2667 30.0229 20.1145 32.8497C19.7923 33.6454 20.1731 34.5535 20.9689 34.8806C21.7696 35.2126 22.6776 34.8269 23.0096 34.036C23.0829 33.8603 24.03 31.6975 26.5199 29.6128C28.1017 31.7561 31.1091 33.8017 35.0588 33.3818C42.7238 32.8252 48.1186 25.9512 48.1186 17.5343C48.1186 15.0835 47.5913 12.5448 46.6637 10.4747Z" fill="#6D84A6"/>
</svg>
