<svg width="65" height="45" viewBox="0 0 65 45" fill="none" xmlns="http://www.w3.org/2000/svg">
<g clip-path="url(#clip0_197_25827)">
<path d="M42.789 19.9845C42.6247 14.451 38.0726 10 32.5 10C26.9274 10 22.3753 14.451 22.2109 19.9845L21.4706 20.7249V25.7457L22.2059 26.481V29.902C22.2059 31.9022 23.8331 33.5294 25.8333 33.5294H26.7441C27.0476 34.3852 27.8649 35 28.8235 35H30.2941C31.2533 35 32.0711 34.3844 32.3741 33.5276C32.4161 33.5284 32.4582 33.5294 32.5 33.5294C36.0509 33.5294 39.022 30.9992 39.7051 27.6471H41.6281L43.5294 25.7457V20.7249L42.789 19.9845ZM32.5 11.4706C36.8643 11.4706 40.4981 14.6558 41.2003 18.8235H39.7051C39.022 15.4714 36.0509 12.9412 32.5 12.9412C28.9491 12.9412 25.978 15.4714 25.2949 18.8235H23.7997C24.5019 14.6558 28.1357 11.4706 32.5 11.4706ZM38.1962 18.8235C35.8193 18.8164 34.1404 18.9612 32.7562 16.9377L32.084 15.9552L31.5064 16.9961C30.6647 18.5127 29.5312 18.8235 28.0882 18.8235H26.8038C27.4584 16.2893 29.7641 14.4118 32.5 14.4118C35.2359 14.4118 37.5416 16.2893 38.1962 18.8235ZM25.1471 26.1765H23.981L22.9412 25.1366V21.334L23.981 20.2941H25.1471V26.1765ZM23.6765 29.902V27.6471H25.2935C25.5703 29.0184 26.2326 30.2772 27.2138 31.2882C27.0081 31.5079 26.8468 31.7695 26.7441 32.0588H25.8333C24.644 32.0588 23.6765 31.0913 23.6765 29.902ZM30.2941 33.5294H28.8235C28.418 33.5294 28.0882 33.1996 28.0882 32.7941C28.0882 32.3887 28.418 32.0588 28.8235 32.0588H30.2941C30.6996 32.0588 31.0294 32.3887 31.0294 32.7941C31.0294 33.1996 30.6996 33.5294 30.2941 33.5294ZM38.3823 26.1765C38.3823 29.42 35.7435 32.0588 32.5 32.0588C32.4578 32.0588 32.4153 32.058 32.3729 32.057C32.0689 31.2021 31.252 30.5882 30.2941 30.5882C28.7843 30.5916 28.8084 30.5807 28.6202 30.598C27.3436 29.4791 26.6176 27.8853 26.6176 26.1765V20.2941H28.0882C29.3896 20.2941 30.9744 20.0796 32.2011 18.5865C33.8197 20.2827 35.7978 20.2941 37.5734 20.2941H38.3823V26.1765ZM42.0588 25.1366L41.019 26.1765H39.8529V20.2941H41.019L42.0588 21.334V25.1366Z" fill="#242424"/>
</g>
<defs>
<clipPath id="clip0_197_25827">
<rect width="25" height="25" fill="white" transform="translate(20 10)"/>
</clipPath>
</defs>
</svg>
