<svg width="65" height="45" viewBox="0 0 65 45" fill="none" xmlns="http://www.w3.org/2000/svg">
<g clip-path="url(#clip0_202_751)">
<path d="M42.7891 19.9845C42.6248 14.451 38.0727 10 32.5001 10C26.9275 10 22.3754 14.451 22.211 19.9845L21.4707 20.7249V25.7457L22.206 26.481V29.902C22.206 31.9022 23.8333 33.5294 25.8334 33.5294H26.7442C27.0478 34.3852 27.8651 35 28.8236 35H30.2942C31.2534 35 32.0712 34.3844 32.3742 33.5276C32.4162 33.5284 32.4584 33.5294 32.5001 33.5294C36.051 33.5294 39.0221 30.9992 39.7052 27.6471H41.6282L43.5295 25.7457V20.7249L42.7891 19.9845ZM32.5001 11.4706C36.8644 11.4706 40.4982 14.6558 41.2004 18.8235H39.7052C39.0221 15.4714 36.051 12.9412 32.5001 12.9412C28.9492 12.9412 25.9782 15.4714 25.295 18.8235H23.7998C24.502 14.6558 28.1359 11.4706 32.5001 11.4706ZM38.1963 18.8235C35.8194 18.8164 34.1405 18.9612 32.7563 16.9377L32.0841 15.9552L31.5065 16.9961C30.6648 18.5127 29.5313 18.8235 28.0884 18.8235H26.8039C27.4585 16.2893 29.7642 14.4118 32.5001 14.4118C35.236 14.4118 37.5417 16.2893 38.1963 18.8235ZM25.1472 26.1765H23.9811L22.9413 25.1366V21.334L23.9811 20.2941H25.1472V26.1765ZM23.6766 29.902V27.6471H25.2936C25.5704 29.0184 26.2327 30.2772 27.2139 31.2882C27.0082 31.5079 26.8469 31.7695 26.7442 32.0588H25.8334C24.6441 32.0588 23.6766 31.0913 23.6766 29.902ZM30.2942 33.5294H28.8236C28.4182 33.5294 28.0884 33.1996 28.0884 32.7941C28.0884 32.3887 28.4182 32.0588 28.8236 32.0588H30.2942C30.6997 32.0588 31.0295 32.3887 31.0295 32.7941C31.0295 33.1996 30.6997 33.5294 30.2942 33.5294ZM38.3825 26.1765C38.3825 29.42 35.7436 32.0588 32.5001 32.0588C32.458 32.0588 32.4155 32.058 32.373 32.057C32.069 31.2021 31.2521 30.5882 30.2942 30.5882C28.7844 30.5916 28.8085 30.5807 28.6203 30.598C27.3437 29.4791 26.6178 27.8853 26.6178 26.1765V20.2941H28.0884C29.3897 20.2941 30.9745 20.0796 32.2012 18.5865C33.8199 20.2827 35.7979 20.2941 37.5735 20.2941H38.3825V26.1765ZM42.0589 25.1366L41.0191 26.1765H39.8531V20.2941H41.0191L42.0589 21.334V25.1366Z" fill="white"/>
</g>
<defs>
<clipPath id="clip0_202_751">
<rect width="25" height="25" fill="white" transform="translate(20 10)"/>
</clipPath>
</defs>
</svg>
