<svg width="64" height="44" viewBox="0 0 64 44" fill="none" xmlns="http://www.w3.org/2000/svg">
<g clip-path="url(#clip0_197_28075)">
<path d="M32 27C34.7614 27 37 24.7614 37 22C37 19.2386 34.7614 17 32 17C29.2386 17 27 19.2386 27 22C27 24.7614 29.2386 27 32 27Z" stroke="#6D84A6" stroke-width="2" stroke-linecap="round" stroke-linejoin="round"/>
<path d="M32 11V13" stroke="#6D84A6" stroke-width="2" stroke-linecap="round" stroke-linejoin="round"/>
<path d="M32 31V33" stroke="#6D84A6" stroke-width="2" stroke-linecap="round" stroke-linejoin="round"/>
<path d="M24.2202 14.2202L25.6402 15.6402" stroke="#6D84A6" stroke-width="2" stroke-linecap="round" stroke-linejoin="round"/>
<path d="M38.3599 28.3599L39.7799 29.7799" stroke="#6D84A6" stroke-width="2" stroke-linecap="round" stroke-linejoin="round"/>
<path d="M21 22H23" stroke="#6D84A6" stroke-width="2" stroke-linecap="round" stroke-linejoin="round"/>
<path d="M41 22H43" stroke="#6D84A6" stroke-width="2" stroke-linecap="round" stroke-linejoin="round"/>
<path d="M24.2202 29.7799L25.6402 28.3599" stroke="#6D84A6" stroke-width="2" stroke-linecap="round" stroke-linejoin="round"/>
<path d="M38.3599 15.6402L39.7799 14.2202" stroke="#6D84A6" stroke-width="2" stroke-linecap="round" stroke-linejoin="round"/>
</g>
<defs>
<clipPath id="clip0_197_28075">
<rect width="24" height="24" fill="white" transform="translate(20 10)"/>
</clipPath>
</defs>
</svg>
