<svg width="75" height="44" viewBox="0 0 75 44" fill="none" xmlns="http://www.w3.org/2000/svg">
<path d="M48.8 20.425C49.0196 19.8518 49.1429 19.225 49.1429 18.5714C49.1429 15.7321 46.8393 13.4286 44 13.4286C42.9446 13.4286 41.9589 13.75 41.1446 14.2964C39.6607 11.725 36.8911 10 33.7143 10C28.9786 10 25.1429 13.8357 25.1429 18.5714C25.1429 18.7161 25.1482 18.8607 25.1536 19.0054C22.1536 20.0607 20 22.9214 20 26.2857C20 30.5446 23.4554 34 27.7143 34H47.4286C51.2161 34 54.2857 30.9304 54.2857 27.1429C54.2857 23.8268 51.9286 21.0571 48.8 20.425Z" fill="#6D84A6"/>
</svg>
