<svg width="38" height="38" viewBox="0 0 38 38" fill="none" xmlns="http://www.w3.org/2000/svg">
<path d="M28 1H10C5.02944 1 1 5.02944 1 10V28C1 32.9706 5.02944 37 10 37H28C32.9706 37 37 32.9706 37 28V10C37 5.02944 32.9706 1 28 1Z" stroke="#3A3A3A" stroke-width="2" stroke-linecap="round" stroke-linejoin="round"/>
<path d="M26.1998 17.8665C26.422 19.3646 26.1661 20.8945 25.4686 22.2388C24.7711 23.583 23.6675 24.6731 22.3147 25.354C20.962 26.0348 19.429 26.2718 17.9338 26.0312C16.4386 25.7906 15.0574 25.0847 13.9865 24.0138C12.9157 22.943 12.2097 21.5617 11.9691 20.0665C11.7285 18.5713 11.9655 17.0384 12.6464 15.6856C13.3273 14.3329 14.4173 13.2293 15.7616 12.5318C17.1058 11.8343 18.6358 11.5784 20.1338 11.8005C21.6619 12.0271 23.0765 12.7392 24.1689 13.8315C25.2612 14.9238 25.9732 16.3385 26.1998 17.8665Z" stroke="#3A3A3A" stroke-width="2" stroke-linecap="round" stroke-linejoin="round"/>
<path d="M28.8999 9.1001H28.9174" stroke="#3A3A3A" stroke-width="2" stroke-linecap="round" stroke-linejoin="round"/>
</svg>
