<svg width="67" height="44" viewBox="0 0 67 44" fill="none" xmlns="http://www.w3.org/2000/svg">
<path d="M43.9002 14.8H39.9002V12.4C39.9002 11.075 38.8252 10 37.5002 10H29.5002C28.1752 10 27.1002 11.075 27.1002 12.4V14.8H23.1002C21.7752 14.8 20.7002 15.875 20.7002 17.2V31.6C20.7002 32.925 21.7752 34 23.1002 34H43.9002C45.2252 34 46.3002 32.925 46.3002 31.6V17.2C46.3002 15.875 45.2252 14.8 43.9002 14.8ZM30.3002 13.2H36.7002V14.8H30.3002V13.2ZM38.3002 25.6C38.3002 25.82 38.1202 26 37.9002 26H35.1002V28.8C35.1002 29.02 34.9202 29.2 34.7002 29.2H32.3002C32.0802 29.2 31.9002 29.02 31.9002 28.8V26H29.1002C28.8802 26 28.7002 25.82 28.7002 25.6V23.2C28.7002 22.98 28.8802 22.8 29.1002 22.8H31.9002V20C31.9002 19.78 32.0802 19.6 32.3002 19.6H34.7002C34.9202 19.6 35.1002 19.78 35.1002 20V22.8H37.9002C38.1202 22.8 38.3002 22.98 38.3002 23.2V25.6Z" fill="#6D84A6"/>
</svg>
