<svg width="65" height="45" viewBox="0 0 65 45" fill="none" xmlns="http://www.w3.org/2000/svg">
<path d="M20 29.79V31.875C20 33.5986 24.1992 35 29.375 35C34.5508 35 38.75 33.5986 38.75 31.875V29.79C36.7334 31.2109 33.0469 31.875 29.375 31.875C25.7031 31.875 22.0166 31.2109 20 29.79ZM35.625 16.25C40.8008 16.25 45 14.8486 45 13.125C45 11.4014 40.8008 10 35.625 10C30.4492 10 26.25 11.4014 26.25 13.125C26.25 14.8486 30.4492 16.25 35.625 16.25ZM20 24.668V27.1875C20 28.9111 24.1992 30.3125 29.375 30.3125C34.5508 30.3125 38.75 28.9111 38.75 27.1875V24.668C36.7334 26.3281 33.042 27.1875 29.375 27.1875C25.708 27.1875 22.0166 26.3281 20 24.668ZM40.3125 25.2051C43.1104 24.6631 45 23.6572 45 22.5V20.415C43.8672 21.2158 42.2021 21.7627 40.3125 22.0996V25.2051ZM29.375 17.8125C24.1992 17.8125 20 19.5605 20 21.7188C20 23.877 24.1992 25.625 29.375 25.625C34.5508 25.625 38.75 23.877 38.75 21.7188C38.75 19.5605 34.5508 17.8125 29.375 17.8125ZM40.083 20.5615C43.0127 20.0342 45 18.999 45 17.8125V15.7275C43.2666 16.9531 40.2881 17.6123 37.1533 17.7686C38.5938 18.4668 39.6533 19.4043 40.083 20.5615Z" fill="#6D84A6"/>
</svg>
