<svg width="66" height="45" viewBox="0 0 66 45" fill="none" xmlns="http://www.w3.org/2000/svg">
<path d="M39.8183 13.4091H26.1819C24.9267 13.4091 23.9092 14.4267 23.9092 15.6818V29.3182C23.9092 30.5734 24.9267 31.5909 26.1819 31.5909H39.8183C41.0735 31.5909 42.091 30.5734 42.091 29.3182V15.6818C42.091 14.4267 41.0735 13.4091 39.8183 13.4091Z" stroke="#6D84A6" stroke-width="2" stroke-linecap="round" stroke-linejoin="round"/>
<path d="M36.409 19.0909H29.5908V25.9091H36.409V19.0909Z" stroke="#6D84A6" stroke-width="2" stroke-linecap="round" stroke-linejoin="round"/>
<path d="M29.5908 10V13.4091" stroke="#6D84A6" stroke-width="2" stroke-linecap="round" stroke-linejoin="round"/>
<path d="M36.4092 10V13.4091" stroke="#6D84A6" stroke-width="2" stroke-linecap="round" stroke-linejoin="round"/>
<path d="M29.5908 31.5909V35" stroke="#6D84A6" stroke-width="2" stroke-linecap="round" stroke-linejoin="round"/>
<path d="M36.4092 31.5909V35" stroke="#6D84A6" stroke-width="2" stroke-linecap="round" stroke-linejoin="round"/>
<path d="M42.0908 19.0909H45.4999" stroke="#6D84A6" stroke-width="2" stroke-linecap="round" stroke-linejoin="round"/>
<path d="M42.0908 24.7727H45.4999" stroke="#6D84A6" stroke-width="2" stroke-linecap="round" stroke-linejoin="round"/>
<path d="M20.5 19.0909H23.9091" stroke="#6D84A6" stroke-width="2" stroke-linecap="round" stroke-linejoin="round"/>
<path d="M20.5 24.7727H23.9091" stroke="#6D84A6" stroke-width="2" stroke-linecap="round" stroke-linejoin="round"/>
</svg>
