<svg width="63" height="45" viewBox="0 0 63 45" fill="none" xmlns="http://www.w3.org/2000/svg">
<path d="M41.0154 15.4677C40.1562 15.4677 39.4532 16.1707 39.4532 17.0299V20.5448C39.4532 20.7596 39.2774 20.9354 39.0626 20.9354H38.2815C38.0667 20.9354 37.891 20.7596 37.891 20.5448V13.1244C37.891 12.2652 37.188 11.5622 36.3288 11.5622C35.4696 11.5622 34.7666 12.2652 34.7666 13.1244V20.5448C34.7666 20.7596 34.5909 20.9354 34.3761 20.9354H33.595C33.3802 20.9354 33.2044 20.7596 33.2044 20.5448V11.5622C33.2044 10.703 32.5014 10 31.6422 10C30.783 10 30.08 10.703 30.08 11.5622V20.5448C30.08 20.7596 29.9043 20.9354 29.6895 20.9354H28.9084C28.6936 20.9354 28.5178 20.7596 28.5178 20.5448V13.1244C28.5178 12.2652 27.8148 11.5622 26.9556 11.5622C26.0964 11.5622 25.3934 12.2652 25.3934 13.1244V24.8897L24.2413 23.3031C23.6067 22.4292 22.3862 22.2388 21.5124 22.8735C20.6385 23.5081 20.4481 24.7286 21.0828 25.6024L27.2144 34.0334C27.6537 34.6387 28.3616 35 29.1085 35H38.7551C39.8437 35 40.7859 34.2531 41.0349 33.1937L42.3286 27.6919C42.4848 27.023 42.5678 26.3103 42.5776 25.6268V17.0299C42.5776 16.1707 41.8746 15.4677 41.0154 15.4677ZM29.2989 30.3085C28.8693 30.3085 28.5178 29.957 28.5178 29.5274C28.5178 29.0978 28.8693 28.7463 29.2989 28.7463C29.7285 28.7463 30.08 29.0978 30.08 29.5274C30.08 29.957 29.7285 30.3085 29.2989 30.3085ZM29.2989 25.6219C28.8693 25.6219 28.5178 25.2705 28.5178 24.8409C28.5178 24.4112 28.8693 24.0598 29.2989 24.0598C29.7285 24.0598 30.08 24.4112 30.08 24.8409C30.08 25.2705 29.7285 25.6219 29.2989 25.6219ZM32.4233 31.8707C31.9937 31.8707 31.6422 31.5192 31.6422 31.0896C31.6422 30.66 31.9937 30.3085 32.4233 30.3085C32.8529 30.3085 33.2044 30.66 33.2044 31.0896C33.2044 31.5192 32.8529 31.8707 32.4233 31.8707ZM32.4233 27.1841C31.9937 27.1841 31.6422 26.8327 31.6422 26.403C31.6422 25.9734 31.9937 25.6219 32.4233 25.6219C32.8529 25.6219 33.2044 25.9734 33.2044 26.403C33.2044 26.8327 32.8529 27.1841 32.4233 27.1841ZM35.5477 28.7463C35.1181 28.7463 34.7666 28.3948 34.7666 27.9652C34.7666 27.5356 35.1181 27.1841 35.5477 27.1841C35.9773 27.1841 36.3288 27.5356 36.3288 27.9652C36.3288 28.3948 35.9773 28.7463 35.5477 28.7463ZM37.1099 31.8707C36.6803 31.8707 36.3288 31.5192 36.3288 31.0896C36.3288 30.66 36.6803 30.3085 37.1099 30.3085C37.5395 30.3085 37.891 30.66 37.891 31.0896C37.891 31.5192 37.5395 31.8707 37.1099 31.8707ZM38.6721 25.6219C38.2425 25.6219 37.891 25.2705 37.891 24.8409C37.891 24.4112 38.2425 24.0598 38.6721 24.0598C39.1017 24.0598 39.4532 24.4112 39.4532 24.8409C39.4532 25.2705 39.1017 25.6219 38.6721 25.6219Z" fill="black" fill-opacity="0.7"/>
</svg>
