<svg width="65" height="45" viewBox="0 0 65 45" fill="none" xmlns="http://www.w3.org/2000/svg">
<path d="M40.5644 11.4648C40.0309 11.4648 39.5308 11.6088 39.0995 11.859V10.7324C39.0995 10.3279 38.7716 10 38.3671 10H26.6483C26.2438 10 25.9159 10.3279 25.9159 10.7324V11.8679C25.4812 11.6122 24.9753 11.4648 24.4355 11.4648C22.8201 11.4648 21.5059 12.7791 21.5059 14.3945C21.5059 15.6267 21.871 16.8173 22.5618 17.8376C23.7377 19.5746 25.1879 20.0253 26.3878 20.5053C27.0797 22.2283 28.4789 23.5938 30.2243 24.2404L29.6842 27.6758H29.578C28.3665 27.6758 27.3808 28.6615 27.3808 29.873V33.5352H26.6483C26.2438 33.5352 25.9159 33.8631 25.9159 34.2676C25.9159 34.6721 26.2438 35 26.6483 35H38.3671C38.7716 35 39.0995 34.6721 39.0995 34.2676C39.0995 33.8631 38.7716 33.5352 38.3671 33.5352H37.6347V29.873C37.6347 28.6615 36.649 27.6758 35.4374 27.6758H35.3313L34.7912 24.2404C36.5391 23.5929 37.9398 22.2244 38.6307 20.4979C39.7643 20.0444 41.2501 19.5924 42.4382 17.8376C43.129 16.8173 43.4941 15.6267 43.4941 14.3945C43.494 12.7791 42.1798 11.4648 40.5644 11.4648ZM25.9104 18.7367C24.1246 18.0223 22.9707 16.318 22.9707 14.3945C22.9707 13.5868 23.6278 12.9297 24.4355 12.9297C25.2433 12.9297 25.9004 13.5868 25.9004 14.3945C25.9004 14.446 25.9058 14.4962 25.9159 14.5447V18.0566C25.9159 18.292 25.9286 18.5245 25.9528 18.7536L25.9104 18.7367ZM36.1698 33.5352H28.8456V32.0703H36.1698V33.5352ZM35.4374 29.1406C35.8413 29.1406 36.1698 29.4692 36.1698 29.873V30.6055H28.8456V29.873C28.8456 29.4692 29.1742 29.1406 29.578 29.1406C29.9754 29.1406 34.5055 29.1406 35.4374 29.1406ZM31.167 27.6758L31.6517 24.5929C31.9319 24.6294 32.2176 24.6484 32.5077 24.6484C32.7978 24.6484 33.0835 24.6294 33.3638 24.5929L33.8484 27.6758H31.167ZM37.6347 18.0566C37.6347 20.8836 35.3347 23.1836 32.5077 23.1836C29.6807 23.1836 27.3808 20.8836 27.3808 18.0566V14.3945H37.6347V18.0566ZM37.6347 12.9297H27.3808V11.4648H37.6347V12.9297ZM39.0894 18.7367L39.0634 18.7471C39.0871 18.5201 39.0995 18.2898 39.0995 18.0566V14.3945C39.0995 13.5868 39.7566 12.9297 40.5644 12.9297C41.3721 12.9297 42.0292 13.5868 42.0292 14.3945C42.0292 16.318 40.8753 18.0224 39.0894 18.7367Z" fill="white"/>
</svg>
