<svg width="65" height="45" viewBox="0 0 65 45" fill="none" xmlns="http://www.w3.org/2000/svg">
<g clip-path="url(#clip0_197_25812)">
<path d="M43.6608 18.8589C43.331 17.8374 43.4716 16.304 42.6142 15.1201C41.75 13.9268 40.247 13.5877 39.3983 12.967C38.5586 12.3528 37.7773 11.0163 36.3648 10.5554C34.9921 10.1074 33.5884 10.7153 32.5 10.7153C31.4118 10.7153 30.0082 10.1073 28.6352 10.5553C27.2229 11.0162 26.441 12.3529 25.6018 12.9668C24.7541 13.5868 23.25 13.9269 22.3859 15.1199C21.5292 16.3029 21.6685 17.8398 21.3392 18.8588C21.0258 19.8287 20 20.9927 20 22.5001C20 24.0085 21.0246 25.168 21.3392 26.1414C21.669 27.1629 21.5284 28.6962 22.3858 29.8801C23.25 31.0735 24.7529 31.4126 25.6017 32.0333C26.4413 32.6474 27.2227 33.984 28.6352 34.4448C30.007 34.8925 31.4129 34.2849 32.5 34.2849C33.5856 34.2849 34.9948 34.8919 36.3648 34.4449C37.7771 33.9841 38.5585 32.6476 39.3982 32.0334C40.2459 31.4134 41.75 31.0734 42.6141 29.8803C43.4708 28.6973 43.3315 27.1606 43.6608 26.1414C43.9742 25.1715 45 24.0075 45 22.5001C45 20.9919 43.9756 19.8327 43.6608 18.8589ZM41.8024 25.5408C41.4179 26.731 41.5186 28.063 41.0323 28.7346C40.5394 29.4151 39.2445 29.7259 38.2454 30.4568C37.2571 31.1795 36.5645 32.3252 35.7589 32.588C34.9968 32.8367 33.7548 32.3317 32.5 32.3317C31.2361 32.3317 30.0069 32.8378 29.2411 32.588C28.4356 32.3252 27.744 31.1803 26.7547 30.4568C25.7614 29.7303 24.4592 29.4131 23.9677 28.7345C23.483 28.0652 23.5799 26.7239 23.1977 25.5409C22.8231 24.3818 21.9531 23.3781 21.9531 22.5001C21.9531 21.6213 22.8223 20.6211 23.1976 19.4594C23.5821 18.2693 23.4814 16.9372 23.9677 16.2656C24.4603 15.5856 25.7562 15.2737 26.7547 14.5434C27.746 13.8184 28.4343 12.6755 29.241 12.4122C30.0025 12.1638 31.2485 12.6685 32.5 12.6685C33.7662 12.6685 34.9923 12.1621 35.7589 12.4122C36.5643 12.675 37.2565 13.8203 38.2454 14.5435C39.2385 15.2699 40.5408 15.5871 41.0323 16.2657C41.5171 16.9352 41.4197 18.275 41.8023 19.4593V19.4593C42.1769 20.6185 43.0469 21.6221 43.0469 22.5001C43.0469 23.379 42.1777 24.3792 41.8024 25.5408ZM36.9992 19.3656C37.3806 19.747 37.3806 20.3653 36.9992 20.7466L32.1112 25.6346C31.7298 26.016 31.1114 26.016 30.7301 25.6346L28.0009 22.9054C27.6195 22.524 27.6194 21.9057 28.0008 21.5244C28.3822 21.143 29.0006 21.143 29.3819 21.5244L31.4206 23.5631L35.618 19.3656C35.9994 18.9842 36.6178 18.9842 36.9992 19.3656Z" fill="#242424"/>
</g>
<defs>
<clipPath id="clip0_197_25812">
<rect width="25" height="25" fill="white" transform="translate(20 10)"/>
</clipPath>
</defs>
</svg>
