<svg width="65" height="45" viewBox="0 0 65 45" fill="none" xmlns="http://www.w3.org/2000/svg">
<g clip-path="url(#clip0_197_25820)">
<path d="M43.0616 22.9591V11.5748C43.0616 11.1686 42.7324 10.8394 42.3262 10.8394H22.623C22.2168 10.8394 21.8875 11.1686 21.8875 11.5748V23.8666C21.5328 23.9183 21.186 24.056 20.8792 24.2838C19.9119 24.9696 19.6832 26.5045 20.4934 27.451L23.8058 31.4667C25.8562 33.8665 28.0344 34.1605 31.2724 34.1605C34.0512 34.1605 35.2935 34.1728 37.7152 33.621L40.0733 33.0569C40.4557 33.5909 41.0627 33.9368 41.7451 33.9368H42.9068C44.061 33.9368 45 32.9476 45 31.7316V25.1576C45 23.9966 44.1437 23.0429 43.0616 22.9591ZM39.7561 24.4718L38.7762 23.9742C37.1652 23.1609 35.3025 23.1308 33.6659 23.8917C33.2194 24.0673 32.2456 24.6565 31.7405 24.6368H28.3403C27.2125 24.6368 26.2949 25.5544 26.2949 26.6822V27.2186C26.2886 27.2119 26.2819 27.2056 26.2757 27.1988L23.8476 24.5632C23.7007 24.4037 23.5356 24.2703 23.3584 24.1632V16.867H29.3767V19.5628C29.3767 19.969 29.706 20.2982 30.1121 20.2982H34.7526C35.1588 20.2982 35.488 19.969 35.488 19.5628V16.867H41.5909V22.959C40.7316 23.0254 40.0151 23.6401 39.7561 24.4718ZM30.8475 16.867H34.0171V18.8274H30.8475V16.867ZM41.5908 15.3962H35.488V12.3102H41.5909V15.3962H41.5908ZM34.0172 12.3102V15.3962H30.8475V12.3102H34.0172ZM29.3766 12.3102V15.3962H23.3584V12.3102H29.3766ZM37.3739 32.1902C35.1367 32.7026 33.7894 32.6819 31.2988 32.6819C28.2591 32.6819 26.7904 32.6328 24.9405 30.5308L21.628 26.5151C21.0519 25.7648 22.0955 24.8791 22.7659 25.5597L25.194 28.1953C25.8357 28.8725 26.6432 29.2451 27.6385 29.267H34.3704C34.7765 29.267 35.1058 28.9378 35.1058 28.5316C35.1058 28.1255 34.7765 27.7962 34.3704 27.7962H27.7657V26.6821C27.7657 26.3653 28.0234 26.1075 28.3403 26.1075H31.7404C32.5064 26.1624 33.612 25.5228 34.286 25.2253C35.5117 24.6554 36.9068 24.678 38.1118 25.2862L39.652 26.0685V31.6453L37.3739 32.1902ZM43.5292 31.7316C43.5292 32.1365 43.25 32.4659 42.9068 32.4659H41.7452C41.402 32.4659 41.1228 32.1365 41.1228 31.7316V25.1576C41.1228 24.7527 41.402 24.4232 41.7452 24.4232H42.9068C43.25 24.4232 43.5292 24.7526 43.5292 25.1576V31.7316Z" fill="#242424"/>
</g>
<defs>
<clipPath id="clip0_197_25820">
<rect width="25" height="25" fill="white" transform="translate(20 10)"/>
</clipPath>
</defs>
</svg>
